HIERARCHY
ROOT Hips
{
	OFFSET -0.001795 -0.223333 0.028219
	CHANNELS 6 Xposition Yposition Zposition Zrotation Yrotation Xrotation 
	JOINT LeftUpLeg
	{
		OFFSET 0.069520 -0.091406 -0.006815
		CHANNELS 3 Zrotation Yrotation Xrotation
		JOINT LeftLeg
		{
			OFFSET 0.034277 -0.375199 -0.004496
			CHANNELS 3 Zrotation Yrotation Xrotation
			JOINT LeftFoot
			{
				OFFSET -0.013596 -0.397961 -0.043693
				CHANNELS 3 Zrotation Yrotation Xrotation
				JOINT LeftToe
				{
					OFFSET 0.026358 -0.055791 0.119288
					CHANNELS 3 Zrotation Yrotation Xrotation
					End Site
					{
						OFFSET 0.000000 0.000000 0.000000
					}
				}
			}
		}
	}
	JOINT RightUpLeg
	{
		OFFSET -0.067670 -0.090522 -0.004320
		CHANNELS 3 Zrotation Yrotation Xrotation
		JOINT RightLeg
		{
			OFFSET -0.038290 -0.382569 -0.008850
			CHANNELS 3 Zrotation Yrotation Xrotation
			JOINT RightFoot
			{
				OFFSET 0.015774 -0.398415 -0.042312
				CHANNELS 3 Zrotation Yrotation Xrotation
				JOINT RightToe
				{
					OFFSET -0.025372 -0.048144 0.123348
					CHANNELS 3 Zrotation Yrotation Xrotation
					End Site
					{
						OFFSET 0.000000 0.000000 0.000000
					}
				}
			}
		}
	}
	JOINT Spine
	{
		OFFSET -0.002533 0.108963 -0.026696
		CHANNELS 3 Zrotation Yrotation Xrotation
		JOINT Spine1
		{
			OFFSET 0.005487 0.135180 0.001092
			CHANNELS 3 Zrotation Yrotation Xrotation
			JOINT Spine2
			{
				OFFSET 0.001457 0.052922 0.025425
				CHANNELS 3 Zrotation Yrotation Xrotation
				JOINT Neck
				{
					OFFSET -0.002778 0.213870 -0.042857
					CHANNELS 3 Zrotation Yrotation Xrotation
					JOINT Head
					{
						OFFSET 0.005152 0.064970 0.051349
						CHANNELS 3 Zrotation Yrotation Xrotation
						End Site
						{
							OFFSET 0.000000 0.000000 0.000000
						}
					}
				}
				JOINT LeftShoulder
				{
					OFFSET 0.078845 0.121749 -0.034090
					CHANNELS 3 Zrotation Yrotation Xrotation
					JOINT LeftArm
					{
						OFFSET 0.090977 0.030469 -0.008868
						CHANNELS 3 Zrotation Yrotation Xrotation
						JOINT LeftForeArm
						{
							OFFSET 0.259612 -0.012772 -0.027456
							CHANNELS 3 Zrotation Yrotation Xrotation
							JOINT LeftHand
							{
								OFFSET 0.249234 0.008986 -0.001171
								CHANNELS 3 Zrotation Yrotation Xrotation
								End Site
								{
									OFFSET 0.000000 0.000000 0.000000
								}
							}
						}
					}
				}
				JOINT RightShoulder
				{
					OFFSET -0.081759 0.118833 -0.038615
					CHANNELS 3 Zrotation Yrotation Xrotation
					JOINT RightArm
					{
						OFFSET -0.096012 0.032551 -0.009143
						CHANNELS 3 Zrotation Yrotation Xrotation
						JOINT RightForeArm
						{
							OFFSET -0.253742 -0.013329 -0.021401
							CHANNELS 3 Zrotation Yrotation Xrotation
							JOINT RightHand
							{
								OFFSET -0.255298 0.007772 -0.005559
								CHANNELS 3 Zrotation Yrotation Xrotation
								End Site
								{
									OFFSET 0.000000 0.000000 0.000000
								}
							}
						}
					}
				}
			}
		}
	}
}
MOTION
Frames: 6
Frame Time: 0.050000
-0.659947 0.947500 1.030039 -1.927806 -10.675399 0.835385 2.974421 0.181705 2.116028 0.908658 0.052161 -4.046669 1.546930 4.714572 5.797866 0.000000 0.000000 0.000000 2.956733 0.132350 -2.106167 -2.876863 0.328319 1.084936 3.100237 2.971151 6.221467 0.000000 0.000000 0.000000 4.952060 -0.067879 0.367444 -1.810620 0.815073 -2.185514 -4.897434 9.949953 6.477511 11.046665 -4.517872 -19.093428 0.000000 0.000000 0.000000 -16.162691 -4.742860 -0.248721 -53.963364 -5.627047 -4.001443 -12.095643 -27.579576 3.698624 0.000000 0.000000 0.000000 16.860295 -3.679678 -2.313319 64.379372 2.524884 -4.986974 7.445521 26.381368 2.883544 0.000000 0.000000 0.000000 
-0.659824 0.947869 1.030298 -2.012160 -11.133611 1.080924 2.978752 0.175051 2.011508 0.928048 0.048391 -4.023108 1.783556 5.164411 5.938098 0.000000 0.000000 0.000000 2.900038 0.136959 -2.174483 -2.965874 0.315930 0.815853 3.015652 2.711608 6.262311 0.000000 0.000000 0.000000 5.046456 -0.073965 0.393006 -1.795525 0.807738 -2.088353 -4.943938 9.871715 6.240808 11.256697 -4.637324 -19.233490 0.000000 0.000000 0.000000 -15.964386 -4.748759 -0.162725 -53.796060 -6.175286 -3.733159 -12.078951 -27.883659 3.753191 0.000000 0.000000 0.000000 16.444855 -3.868872 -2.452591 64.304108 1.965597 -5.255121 7.863071 26.271647 2.937598 0.000000 0.000000 0.000000 
-0.659646 0.948381 1.030566 -2.143031 -11.679671 1.324888 2.960386 0.166592 1.871610 1.060952 0.037563 -4.078601 1.914317 5.406669 6.094059 0.000000 0.000000 0.000000 2.916480 0.149030 -2.319631 -3.130101 0.326346 0.781263 2.967943 2.498857 6.338624 0.000000 0.000000 0.000000 5.124674 -0.086386 0.495368 -1.759813 0.785515 -2.190705 -4.878488 9.913347 6.148914 11.383133 -4.679246 -19.515587 0.000000 0.000000 0.000000 -15.656490 -4.757049 -0.066180 -53.809622 -6.742526 -3.489387 -12.000759 -28.363427 3.818255 0.000000 0.000000 0.000000 16.223899 -4.066249 -2.596389 63.980243 1.680601 -5.381245 8.160011 25.738215 2.911073 0.000000 0.000000 0.000000 
-0.659417 0.948784 1.030888 -2.330999 -12.317481 1.753810 2.865678 0.143345 1.554724 1.135142 0.027825 -4.048181 2.228448 5.969733 6.150640 0.000000 0.000000 0.000000 3.126041 0.182623 -2.685331 -3.402351 0.349913 0.794986 3.044864 2.562383 6.400738 0.000000 0.000000 0.000000 5.336877 -0.092343 0.478679 -1.826093 0.809360 -2.304834 -4.703530 9.966577 5.982110 11.248320 -4.567681 -19.789899 0.000000 0.000000 0.000000 -15.109560 -4.323550 -0.152862 -54.270145 -7.027768 -3.400113 -12.329739 -28.748816 3.974762 0.000000 0.000000 0.000000 15.373577 -4.255435 -2.692952 64.254449 1.217210 -5.607628 8.803934 25.639212 3.013420 0.000000 0.000000 0.000000 
-0.659231 0.949190 1.031346 -2.441842 -12.583058 2.026920 2.836418 0.124806 1.321867 1.265336 0.018249 -4.112208 2.189488 5.889797 6.239001 0.000000 0.000000 0.000000 3.170344 0.199069 -2.856782 -3.565126 0.357291 0.707955 2.940529 2.297592 6.412881 0.000000 0.000000 0.000000 5.444978 -0.102456 0.536351 -1.710742 0.751119 -2.461927 -4.691472 10.101498 5.934662 11.250481 -4.543023 -19.915542 0.000000 0.000000 0.000000 -14.896501 -4.277923 -0.147516 -54.337716 -7.148123 -3.351322 -12.901885 -29.304908 4.202722 0.000000 0.000000 0.000000 15.272232 -4.501323 -2.814858 64.044317 0.965442 -5.719042 8.989858 25.533831 3.036408 0.000000 0.000000 0.000000 
-0.659105 0.949431 1.031853 -2.468662 -12.749035 2.301888 2.923432 0.105153 1.082293 1.168121 0.023836 -4.047096 2.249270 6.000248 6.302692 0.000000 0.000000 0.000000 3.128553 0.217636 -3.030796 -3.690494 0.366730 0.691594 2.820641 2.059299 6.354768 0.000000 0.000000 0.000000 5.581063 -0.110482 0.557582 -1.721113 0.748936 -2.675840 -4.629019 10.038263 6.119012 11.251743 -4.454105 -20.487240 0.000000 0.000000 0.000000 -14.726430 -4.202227 -0.120830 -54.494103 -7.197485 -3.364062 -13.333908 -29.636966 4.385386 0.000000 0.000000 0.000000 14.961613 -4.570495 -2.853855 64.076031 0.706563 -5.875005 9.184619 25.687718 3.091387 0.000000 0.000000 0.000000 
